<svg width="334" height="173" xmlns="http://www.w3.org/2000/svg" xmlns:xlink="http://www.w3.org/1999/xlink" xml:space="preserve" overflow="hidden"><defs><clipPath id="clip0"><rect x="0" y="0" width="334" height="173"/></clipPath></defs><g clip-path="url(#clip0)"><path d="M228.371 145.35C228.371 145.796 228.01 146.157 227.564 146.157 227.118 146.157 226.756 145.796 226.756 145.35 226.756 144.904 227.118 144.542 227.564 144.542 228.01 144.542 228.371 144.904 228.371 145.35Z" fill="#009540" transform="matrix(1 0 0 1.00236 -138.167 -218.656)"/><path d="M221.154 119.308 231.096 114.968C231.702 114.715 232.409 117.945 231.803 118.147L221.558 121.175C221.204 121.226 220.801 119.459 221.154 119.308Z" fill="#91A7B3" transform="matrix(1 0 0 1.00236 -138.167 -218.656)"/><path d="M221.104 132.178 231.652 136.114C232.308 136.367 232.762 132.783 232.106 132.632L221.356 130.159C221.003 130.058 220.7 132.026 221.104 132.178Z" fill="#91A7B3" transform="matrix(1 0 0 1.00236 -138.167 -218.656)"/><path d="M220.094 124.557 234.326 122.74C234.882 122.689 234.882 127.383 234.326 127.383L220.094 126.323C219.892 126.273 219.892 124.607 220.094 124.557Z" fill="#91A7B3" transform="matrix(1 0 0 1.00236 -138.167 -218.656)"/><path d="M218.681 125.263C218.681 117.744 222.466 112.444 226.251 109.517L224.737 107.347C218.732 111.788 214.189 117.643 214.189 125.213 214.189 133.338 220.195 138.436 225.595 143.432L227.463 141.565C222.668 137.275 218.681 131.875 218.681 125.263Z" fill="#CAD3D7" transform="matrix(1 0 0 1.00236 -138.167 -218.656)"/><path d="M237.758 164.326C237.758 171.846 233.973 177.145 228.926 181.486L230.44 183.656C237.708 177.801 242.3 171.947 242.3 164.377 242.3 156.251 236.295 151.154 230.894 146.157L229.027 148.025C233.822 152.365 237.758 157.765 237.758 164.326Z" fill="#CAD3D7" transform="matrix(1 0 0 1.00236 -138.167 -218.656)"/><path d="M233.973 171.291 224.031 175.631C223.425 175.884 222.719 172.654 223.324 172.452L233.569 169.424C233.923 169.373 234.326 171.139 233.973 171.291Z" fill="#91A7B3" transform="matrix(1 0 0 1.00236 -138.167 -218.656)"/><path d="M234.024 158.421 223.476 154.485C222.819 154.232 222.365 157.816 223.021 157.967L233.771 160.44C234.124 160.541 234.427 158.573 234.024 158.421Z" fill="#91A7B3" transform="matrix(1 0 0 1.00236 -138.167 -218.656)"/><path d="M235.033 166.042 220.801 167.859C220.246 167.91 220.246 163.216 220.801 163.216L235.033 164.276C235.235 164.326 235.235 166.042 235.033 166.042Z" fill="#91A7B3" transform="matrix(1 0 0 1.00236 -138.167 -218.656)"/><path d="M306.194 111.889 315.076 111.889 321.688 132.884 321.789 132.884 328.4 111.889 337.283 111.889 337.283 139.597 331.983 139.597 331.983 116.734 331.882 116.734 324.413 139.597 319.114 139.597 311.644 116.734 311.544 116.835 311.544 139.647 306.244 139.647 306.244 111.889Z" fill="#1C7FB5" transform="matrix(1 0 0 1.00236 -138.167 -218.656)"/><path d="M357.268 138.436C355.3 139.496 353.079 140.051 350.253 140.051 343.49 140.051 339.554 136.165 339.554 129.452 339.554 123.547 342.683 118.652 349.042 118.652 356.612 118.652 358.782 123.85 358.782 131.017L344.651 131.017C344.903 134.297 347.174 136.165 350.505 136.165 353.079 136.165 355.3 135.206 357.319 134.095L357.319 138.436ZM353.685 127.383C353.534 124.809 352.322 122.589 349.345 122.589 346.367 122.589 344.853 124.658 344.601 127.383L353.685 127.383Z" fill="#1C7FB5" transform="matrix(1 0 0 1.00236 -138.167 -218.656)"/><path d="M363.123 123.043 359.186 123.043 359.186 119.157 363.123 119.157 363.123 115.069 368.422 113.353 368.422 119.157 373.166 119.157 373.166 123.043 368.422 123.043 368.422 132.581C368.422 134.348 368.876 135.963 370.945 135.963 371.904 135.963 372.813 135.761 373.368 135.408L373.519 139.597C372.409 139.899 371.198 140.051 369.583 140.051 365.394 140.051 363.123 137.477 363.123 133.439L363.123 123.043Z" fill="#1C7FB5" transform="matrix(1 0 0 1.00236 -138.167 -218.656)"/><path d="M376.951 120.217C379.02 119.258 381.796 118.652 384.067 118.652 390.325 118.652 392.899 121.226 392.899 127.282L392.899 129.907C392.899 131.976 392.95 133.54 393 135.054 393.051 136.619 393.101 138.032 393.252 139.647L388.559 139.647C388.357 138.587 388.357 137.224 388.306 136.568L388.206 136.568C386.994 138.839 384.319 140.101 381.897 140.101 378.263 140.101 374.73 137.931 374.73 134.045 374.73 130.966 376.194 129.2 378.213 128.191 380.231 127.181 382.856 126.979 385.076 126.979L388.004 126.979C388.004 123.699 386.54 122.589 383.411 122.589 381.14 122.589 378.869 123.447 377.102 124.809L376.951 120.217ZM383.159 136.215C384.774 136.215 386.035 135.509 386.893 134.398 387.751 133.237 388.004 131.774 388.004 130.209L385.682 130.209C383.31 130.209 379.777 130.613 379.777 133.742 379.777 135.458 381.241 136.215 383.159 136.215Z" fill="#1C7FB5" transform="matrix(1 0 0 1.00236 -138.167 -218.656)"/><path d="M396.735 131.118 396.735 126.727 407.182 126.727 407.182 131.118 396.735 131.118Z" fill="#1C7FB5" transform="matrix(1 0 0 1.00236 -138.167 -218.656)"/><path d="M327.845 154.687C325.725 153.677 322.899 153.223 320.678 153.223 314.218 153.223 310.635 157.614 310.635 163.266 310.635 168.919 314.117 173.158 320.073 173.158 321.587 173.158 322.798 173.007 323.706 172.754L323.706 165.537 317.802 165.537 317.802 161.147 329.056 161.147 329.056 176.136C326.129 176.943 323.05 177.549 320.073 177.549 311.089 177.549 304.882 173.057 304.882 163.67 304.882 154.182 310.686 148.832 320.073 148.832 323.303 148.832 325.826 149.287 328.198 149.993L327.845 154.687Z" fill="#1C7FB5" transform="matrix(1 0 0 1.00236 -138.167 -218.656)"/><path d="M349.244 175.934C347.275 176.994 345.055 177.549 342.228 177.549 335.466 177.549 331.529 173.663 331.529 166.951 331.529 161.046 334.658 156.15 341.017 156.15 348.588 156.15 350.758 161.349 350.758 168.515L336.626 168.515C336.879 171.796 339.15 173.663 342.481 173.663 345.055 173.663 347.275 172.704 349.294 171.594L349.294 175.934ZM345.66 164.831C345.509 162.257 344.298 160.036 341.32 160.036 338.342 160.036 336.828 162.106 336.576 164.831L345.66 164.831Z" fill="#1C7FB5" transform="matrix(1 0 0 1.00236 -138.167 -218.656)"/><path d="M353.332 156.604 358.378 156.604 358.378 159.38 358.479 159.38C360.145 157.059 362.416 156.1 365.192 156.1 370.037 156.1 372.156 159.532 372.156 164.124L372.156 177.044 366.857 177.044 366.857 166.143C366.857 163.62 366.807 160.238 363.425 160.238 359.59 160.238 358.732 164.427 358.732 167.052L358.732 177.044 353.433 177.044 353.433 156.604Z" fill="#1C7FB5" transform="matrix(1 0 0 1.00236 -138.167 -218.656)"/><path d="M384.622 156.15C390.678 156.15 395.372 160.238 395.372 167.001 395.372 172.906 391.436 177.549 384.622 177.549 377.859 177.549 373.923 172.855 373.923 167.001 373.923 160.238 378.566 156.15 384.622 156.15ZM384.622 173.411C388.71 173.411 389.77 169.777 389.77 166.345 389.77 163.216 388.105 160.289 384.622 160.289 381.19 160.289 379.474 163.317 379.474 166.345 379.474 169.726 380.534 173.411 384.622 173.411Z" fill="#1C7FB5" transform="matrix(1 0 0 1.00236 -138.167 -218.656)"/><path d="M397.038 156.604 401.983 156.604 401.983 159.481 402.084 159.481C403.75 156.958 406.172 156.15 408.141 156.15 411.017 156.15 413.036 157.21 414.197 159.784 415.408 157.311 418.083 156.15 420.606 156.15 425.653 156.15 427.066 159.582 427.066 164.175L427.066 177.095 421.767 177.095 421.767 164.881C421.767 162.964 421.767 160.289 418.689 160.289 415.156 160.289 414.702 164.478 414.702 167.152L414.702 177.095 409.402 177.095 409.402 164.881C409.402 162.964 409.402 160.289 406.324 160.289 402.791 160.289 402.337 164.478 402.337 167.152L402.337 177.095 397.038 177.095 397.038 156.604Z" fill="#1C7FB5" transform="matrix(1 0 0 1.00236 -138.167 -218.656)"/><path d="M446.446 175.934C444.478 176.994 442.258 177.549 439.431 177.549 432.668 177.549 428.732 173.663 428.732 166.951 428.732 161.046 431.861 156.15 438.22 156.15 445.79 156.15 447.961 161.349 447.961 168.515L433.829 168.515C434.082 171.796 436.353 173.663 439.684 173.663 442.258 173.663 444.478 172.704 446.497 171.594L446.497 175.934ZM442.863 164.831C442.712 162.257 441.501 160.036 438.523 160.036 435.545 160.036 434.031 162.106 433.779 164.831L442.863 164.831Z" fill="#1C7FB5" transform="matrix(1 0 0 1.00236 -138.167 -218.656)"/><path d="M290.599 118.702 266.021 147.47C266.071 146.763 266.071 146.006 266.071 145.299 266.071 127.181 253.757 111.839 237.052 107.297 236.497 107.145 236.042 107.801 236.396 108.255 239.07 111.889 240.736 114.615 241.695 117.239 241.846 117.693 242.149 118.046 242.553 118.248 251.789 123.699 257.996 133.793 257.996 145.249 257.996 156.352 252.192 166.143 243.411 171.745 243.057 171.947 242.805 172.25 242.654 172.603 240.988 176.136 238.313 179.366 234.932 182.596 234.478 183.05 234.882 183.807 235.487 183.656 244.319 181.637 251.99 176.641 257.492 169.777L257.492 169.777 293.577 127.535C292.82 124.506 291.81 121.529 290.599 118.702Z" fill="#1C7FB5" transform="matrix(1 0 0 1.00236 -138.167 -218.656)"/><path d="M220.801 106.287C210.707 107.801 201.824 113.201 195.768 120.873L195.768 120.873 159.431 163.367C160.238 166.395 161.248 169.373 162.459 172.25L187.34 143.129C187.289 143.836 187.289 144.542 187.289 145.249 187.289 164.124 200.613 179.921 218.378 183.757 218.933 183.858 219.337 183.252 218.984 182.747 216.46 179.366 214.795 176.792 213.786 174.369 213.584 173.915 213.281 173.562 212.827 173.36 202.481 168.263 195.314 157.563 195.314 145.249 195.314 132.733 202.682 121.932 213.281 116.886 213.685 116.684 213.987 116.381 214.189 116.028 215.754 113.1 218.075 110.274 221.305 107.347 221.81 106.994 221.406 106.237 220.801 106.287Z" fill="#1C7FB5" transform="matrix(1 0 0 1.00236 -138.167 -218.656)"/><path d="M228.068 145.956C229.582 144.492 240.685 138.284 240.685 125.314 240.685 118.551 239.171 115.271 231.702 105.833 226.1 98.7673 213.887 84.1314 208.941 78.277 208.083 78.4789 207.225 78.7312 206.367 78.9836 210.404 84.6361 222.264 101.139 228.119 108.609 235.336 117.794 236.143 120.116 236.143 125.314 236.143 135.963 229.784 142.069 227.059 144.694 224.334 147.318 214.391 152.365 214.391 165.336 214.391 172.098 215.905 175.328 223.375 184.817 228.724 191.579 239.121 206.064 243.915 212.675 244.773 212.473 245.631 212.221 246.489 211.969 242.502 205.357 232.56 189.106 226.958 182.041 219.741 172.855 218.933 170.534 218.933 165.336 218.933 154.636 226.504 147.419 228.068 145.956Z" fill="#91A7B3" transform="matrix(1 0 0 1.00236 -138.167 -218.656)"/><path d="M228.371 303.216C228.371 303.662 228.01 304.024 227.564 304.024 227.118 304.024 226.756 303.662 226.756 303.216 226.756 302.77 227.118 302.409 227.564 302.409 228.01 302.409 228.371 302.77 228.371 303.216Z" fill="#1D1D1B" transform="matrix(1 0 0 1.00236 -138.167 -218.656)"/><path d="M221.154 277.225 231.096 272.884C231.702 272.632 232.409 275.862 231.803 276.064L221.558 279.092C221.204 279.143 220.801 277.376 221.154 277.225Z" fill="#1D1D1B" transform="matrix(1 0 0 1.00236 -138.167 -218.656)"/><path d="M221.104 290.094 231.652 294.031C232.308 294.283 232.762 290.7 232.106 290.549L221.356 288.076C221.003 287.975 220.7 289.943 221.104 290.094Z" fill="#1D1D1B" transform="matrix(1 0 0 1.00236 -138.167 -218.656)"/><path d="M220.094 282.474 234.326 280.657C234.882 280.606 234.882 285.3 234.326 285.3L220.094 284.24C219.892 284.139 219.892 282.474 220.094 282.474Z" fill="#1D1D1B" transform="matrix(1 0 0 1.00236 -138.167 -218.656)"/><path d="M218.681 283.18C218.681 275.66 222.466 270.361 226.251 267.434L224.737 265.264C218.732 269.705 214.189 275.559 214.189 283.13 214.189 291.255 220.195 296.352 225.595 301.349L227.463 299.482C222.668 295.141 218.681 289.792 218.681 283.18Z" fill="#1D1D1B" transform="matrix(1 0 0 1.00236 -138.167 -218.656)"/><path d="M237.758 322.243C237.758 329.763 233.973 335.062 228.926 339.402L230.44 341.572C237.708 335.718 242.3 329.864 242.3 322.293 242.3 314.168 236.295 309.071 230.894 304.074L229.027 305.941C233.822 310.282 237.758 315.632 237.758 322.243Z" fill="#1D1D1B" transform="matrix(1 0 0 1.00236 -138.167 -218.656)"/><path d="M233.973 329.208 224.031 333.548C223.425 333.8 222.719 330.57 223.324 330.368L233.569 327.34C233.923 327.29 234.326 329.056 233.973 329.208Z" fill="#1D1D1B" transform="matrix(1 0 0 1.00236 -138.167 -218.656)"/><path d="M234.024 316.338 223.476 312.401C222.819 312.149 222.365 315.732 223.021 315.884L233.771 318.357C234.124 318.407 234.427 316.489 234.024 316.338Z" fill="#1D1D1B" transform="matrix(1 0 0 1.00236 -138.167 -218.656)"/><path d="M235.033 323.959 220.801 325.776C220.246 325.826 220.246 321.133 220.801 321.133L235.033 322.192C235.235 322.243 235.235 323.908 235.033 323.959Z" fill="#1D1D1B" transform="matrix(1 0 0 1.00236 -138.167 -218.656)"/><path d="M306.194 269.755 315.076 269.755 321.688 290.75 321.789 290.75 328.4 269.755 337.283 269.755 337.283 297.463 331.983 297.463 331.983 274.6 331.882 274.6 324.413 297.463 319.114 297.463 311.644 274.6 311.544 274.701 311.544 297.513 306.244 297.513 306.244 269.755Z" fill="#1D1D1B" transform="matrix(1 0 0 1.00236 -138.167 -218.656)"/><path d="M357.268 296.352C355.3 297.412 353.079 297.967 350.253 297.967 343.49 297.967 339.554 294.081 339.554 287.369 339.554 281.464 342.683 276.569 349.042 276.569 356.612 276.569 358.782 281.767 358.782 288.934L344.651 288.934C344.903 292.214 347.174 294.081 350.505 294.081 353.079 294.081 355.3 293.122 357.319 292.012L357.319 296.352ZM353.685 285.249C353.534 282.675 352.322 280.455 349.345 280.455 346.367 280.455 344.853 282.524 344.601 285.249L353.685 285.249Z" fill="#1D1D1B" transform="matrix(1 0 0 1.00236 -138.167 -218.656)"/><path d="M363.123 280.909 359.186 280.909 359.186 277.023 363.123 277.023 363.123 272.935 368.422 271.219 368.422 277.023 373.166 277.023 373.166 280.909 368.422 280.909 368.422 290.448C368.422 292.214 368.876 293.829 370.945 293.829 371.904 293.829 372.813 293.627 373.368 293.274L373.519 297.463C372.409 297.766 371.198 297.917 369.583 297.917 365.394 297.917 363.123 295.343 363.123 291.306L363.123 280.909Z" fill="#1D1D1B" transform="matrix(1 0 0 1.00236 -138.167 -218.656)"/><path d="M376.951 278.133C379.02 277.174 381.796 276.569 384.067 276.569 390.325 276.569 392.899 279.143 392.899 285.199L392.899 287.823C392.899 289.892 392.95 291.457 393 292.971 393.051 294.536 393.101 295.949 393.252 297.564L388.559 297.564C388.357 296.504 388.357 295.141 388.306 294.485L388.206 294.485C386.994 296.756 384.319 298.018 381.897 298.018 378.263 298.018 374.73 295.848 374.73 291.962 374.73 288.883 376.194 287.117 378.213 286.107 380.231 285.098 382.856 284.896 385.076 284.896L388.004 284.896C388.004 281.616 386.54 280.505 383.411 280.505 381.14 280.505 378.869 281.363 377.102 282.726L376.951 278.133ZM383.159 294.081C384.774 294.081 386.035 293.375 386.893 292.264 387.751 291.104 388.004 289.64 388.004 288.076L385.682 288.076C383.31 288.076 379.777 288.479 379.777 291.608 379.777 293.324 381.241 294.081 383.159 294.081Z" fill="#1D1D1B" transform="matrix(1 0 0 1.00236 -138.167 -218.656)"/><path d="M396.735 288.984 396.735 284.644 407.182 284.644 407.182 289.034 396.735 289.034Z" fill="#1D1D1B" transform="matrix(1 0 0 1.00236 -138.167 -218.656)"/><path d="M327.845 312.603C325.725 311.594 322.899 311.14 320.678 311.14 314.218 311.14 310.635 315.531 310.635 321.183 310.635 326.836 314.117 331.075 320.073 331.075 321.587 331.075 322.798 330.924 323.706 330.671L323.706 323.454 317.802 323.454 317.802 319.063 329.056 319.063 329.056 334.002C326.129 334.81 323.05 335.415 320.073 335.415 311.089 335.415 304.882 330.924 304.882 321.536 304.882 312.048 310.686 306.699 320.073 306.699 323.303 306.699 325.826 307.153 328.198 307.859L327.845 312.603Z" fill="#1D1D1B" transform="matrix(1 0 0 1.00236 -138.167 -218.656)"/><path d="M349.244 333.8C347.275 334.86 345.055 335.415 342.228 335.415 335.466 335.415 331.529 331.529 331.529 324.817 331.529 318.912 334.658 314.016 341.017 314.016 348.588 314.016 350.758 319.215 350.758 326.381L336.626 326.381C336.879 329.662 339.15 331.529 342.481 331.529 345.055 331.529 347.275 330.57 349.294 329.46L349.294 333.8ZM345.66 322.697C345.509 320.123 344.298 317.903 341.32 317.903 338.342 317.903 336.828 319.972 336.576 322.697L345.66 322.697Z" fill="#1D1D1B" transform="matrix(1 0 0 1.00236 -138.167 -218.656)"/><path d="M353.332 314.521 358.378 314.521 358.378 317.297 358.479 317.297C360.145 314.975 362.416 314.016 365.192 314.016 370.037 314.016 372.156 317.448 372.156 322.041L372.156 334.961 366.857 334.961 366.857 324.009C366.857 321.486 366.807 318.104 363.425 318.104 359.59 318.104 358.732 322.293 358.732 324.918L358.732 334.911 353.433 334.911 353.433 314.521Z" fill="#1D1D1B" transform="matrix(1 0 0 1.00236 -138.167 -218.656)"/><path d="M384.622 314.016C390.678 314.016 395.372 318.104 395.372 324.867 395.372 330.772 391.436 335.415 384.622 335.415 377.859 335.415 373.923 330.722 373.923 324.867 373.923 318.104 378.566 314.016 384.622 314.016ZM384.622 331.327C388.71 331.327 389.77 327.694 389.77 324.262 389.77 321.133 388.105 318.205 384.622 318.205 381.19 318.205 379.474 321.234 379.474 324.262 379.474 327.593 380.534 331.327 384.622 331.327Z" fill="#1D1D1B" transform="matrix(1 0 0 1.00236 -138.167 -218.656)"/><path d="M397.038 314.521 401.983 314.521 401.983 317.398 402.084 317.398C403.75 314.874 406.172 314.067 408.141 314.067 411.017 314.067 413.036 315.127 414.197 317.701 415.408 315.228 418.083 314.067 420.606 314.067 425.653 314.067 427.066 317.499 427.066 322.091L427.066 335.011 421.767 335.011 421.767 322.798C421.767 320.88 421.767 318.205 418.689 318.205 415.156 318.205 414.702 322.394 414.702 325.069L414.702 335.011 409.402 335.011 409.402 322.798C409.402 320.88 409.402 318.205 406.324 318.205 402.791 318.205 402.337 322.394 402.337 325.069L402.337 335.011 397.038 335.011 397.038 314.521Z" fill="#1D1D1B" transform="matrix(1 0 0 1.00236 -138.167 -218.656)"/><path d="M446.446 333.8C444.478 334.86 442.258 335.415 439.431 335.415 432.668 335.415 428.732 331.529 428.732 324.817 428.732 318.912 431.861 314.016 438.22 314.016 445.79 314.016 447.961 319.215 447.961 326.381L433.829 326.381C434.082 329.662 436.353 331.529 439.684 331.529 442.258 331.529 444.478 330.57 446.497 329.46L446.497 333.8ZM442.863 322.697C442.712 320.123 441.501 317.903 438.523 317.903 435.545 317.903 434.031 319.972 433.779 322.697L442.863 322.697Z" fill="#1D1D1B" transform="matrix(1 0 0 1.00236 -138.167 -218.656)"/><path d="M290.599 276.569 266.021 305.336C266.071 304.629 266.071 303.872 266.071 303.166 266.071 285.047 253.757 269.705 237.052 265.163 236.497 265.011 236.042 265.667 236.396 266.122 239.07 269.755 240.736 272.481 241.695 275.105 241.846 275.559 242.149 275.913 242.553 276.114 251.789 281.565 257.996 291.659 257.996 303.115 257.996 314.218 252.192 324.009 243.411 329.611 243.057 329.813 242.805 330.116 242.654 330.469 240.988 334.002 238.313 337.232 234.932 340.462 234.478 340.916 234.882 341.673 235.487 341.522 244.319 339.503 251.99 334.507 257.492 327.643L257.492 327.643 293.577 285.401C292.82 282.423 291.81 279.445 290.599 276.569Z" fill="#1D1D1B" transform="matrix(1 0 0 1.00236 -138.167 -218.656)"/><path d="M220.801 264.204C210.707 265.718 201.824 271.118 195.768 278.789L195.768 278.789 159.431 321.284C160.238 324.312 161.248 327.29 162.459 330.166L187.34 301.046C187.289 301.753 187.289 302.459 187.289 303.166 187.289 322.041 200.613 337.838 218.378 341.673 218.933 341.774 219.337 341.169 218.984 340.664 216.46 337.283 214.795 334.709 213.786 332.286 213.584 331.832 213.281 331.479 212.827 331.277 202.481 326.179 195.314 315.48 195.314 303.166 195.314 290.649 202.682 279.849 213.281 274.802 213.685 274.6 213.987 274.298 214.189 273.944 215.754 271.017 218.075 268.191 221.305 265.264 221.81 264.86 221.406 264.103 220.801 264.204Z" fill="#1D1D1B" transform="matrix(1 0 0 1.00236 -138.167 -218.656)"/><path d="M228.068 303.872C229.582 302.409 240.685 296.201 240.685 283.231 240.685 276.468 239.171 273.187 231.702 263.75 226.1 256.684 213.887 242.048 208.941 236.194 208.083 236.396 207.225 236.648 206.367 236.9 210.404 242.553 222.264 259.056 228.119 266.525 235.336 275.711 236.143 278.032 236.143 283.231 236.143 293.879 229.784 299.986 227.059 302.611 224.334 305.235 214.391 310.282 214.391 323.252 214.391 330.015 215.905 333.245 223.375 342.733 228.724 349.496 239.121 363.981 243.915 370.592 244.773 370.39 245.631 370.138 246.489 369.885 242.502 363.274 232.56 347.023 226.958 339.957 219.741 330.772 218.933 328.451 218.933 323.252 218.933 312.553 226.504 305.285 228.068 303.872Z" fill="#1D1D1B" transform="matrix(1 0 0 1.00236 -138.167 -218.656)"/></g></svg>